<?xml version="1.0" encoding="utf-8"?>
<!-- Generator: Adobe Illustrator 22.1.0, SVG Export Plug-In . SVG Version: 6.00 Build 0)  -->
<svg version="1.1" id="Layer_1" xmlns="http://www.w3.org/2000/svg" xmlns:xlink="http://www.w3.org/1999/xlink" x="0px" y="0px"
	 viewBox="0 0 63.3 67" style="enable-background:new 0 0 63.3 67;" xml:space="preserve">
<style type="text/css">
	.st0{clip-path:url(#SVGID_2_);fill:#D2DD26;}
	.st1{clip-path:url(#SVGID_4_);fill:url(#SVGID_5_);}
</style>
<g>
	<g>
		<defs>
			<rect id="SVGID_1_" x="24.8" y="7.1" width="13.4" height="55"/>
		</defs>
		<clipPath id="SVGID_2_">
			<use xlink:href="#SVGID_1_"  style="overflow:visible;"/>
		</clipPath>
		<path class="st0" d="M32.9,62.1h-2.7c-2.9,0-5.3-2.4-5.3-5.3V12.4c0-2.9,2.4-5.3,5.3-5.3h2.7c2.9,0,5.3,2.4,5.3,5.3v44.4
			C38.2,59.7,35.8,62.1,32.9,62.1"/>
	</g>
	<g>
		<defs>
			<path id="SVGID_3_" d="M9.3,27.9c-2.9,0-5.3,2.4-5.3,5.3V36c0,2.9,2.4,5.3,5.3,5.3h44.4c2.9,0,5.3-2.4,5.3-5.3v-2.7
				c0-2.9-2.4-5.3-5.3-5.3H9.3z"/>
		</defs>
		<clipPath id="SVGID_4_">
			<use xlink:href="#SVGID_3_"  style="overflow:visible;"/>
		</clipPath>
		
			<radialGradient id="SVGID_5_" cx="1567.407" cy="324.1639" r="0.4935" gradientTransform="matrix(40.5474 0 0 -40.5474 -63522.7422 13178.6152)" gradientUnits="userSpaceOnUse">
			<stop  offset="0" style="stop-color:#F37A20"/>
			<stop  offset="1" style="stop-color:#F37A20"/>
			<stop  offset="1" style="stop-color:#B2D240"/>
		</radialGradient>
		<rect x="4" y="27.9" class="st1" width="55" height="13.4"/>
	</g>
</g>
</svg>
