<?xml version="1.0" encoding="utf-8"?>
<!-- Generator: Adobe Illustrator 22.1.0, SVG Export Plug-In . SVG Version: 6.00 Build 0)  -->
<svg version="1.1" id="Layer_1" xmlns="http://www.w3.org/2000/svg" xmlns:xlink="http://www.w3.org/1999/xlink" x="0px" y="0px"
	 viewBox="0 0 63.3 67" style="enable-background:new 0 0 63.3 67;" xml:space="preserve">
<style type="text/css">
	.st0{clip-path:url(#SVGID_2_);fill:url(#SVGID_3_);}
</style>
<g>
	<defs>
		<path id="SVGID_1_" d="M35.9,9.9L12.4,30.2c-1.3,1.1-1.8,2.6-1.6,4.1c0,1.3,0.6,2.5,1.6,3.4l22.9,20c2.1,1.8,5.4,1.8,7.4-0.2
			l0.4-0.3c2-1.9,1.9-5-0.2-6.8L24.1,33.9l19.2-16.6c2.1-1.8,2.2-4.9,0.3-6.8l-0.3-0.3c-1-1-2.4-1.5-3.8-1.5
			C38.2,8.6,36.9,9.1,35.9,9.9"/>
	</defs>
	<clipPath id="SVGID_2_">
		<use xlink:href="#SVGID_1_"  style="overflow:visible;"/>
	</clipPath>
	
		<radialGradient id="SVGID_3_" cx="1560.6699" cy="331.1523" r="0.4923" gradientTransform="matrix(46.1689 0 0 -42.7416 -72026.5234 14187.7871)" gradientUnits="userSpaceOnUse">
		<stop  offset="0" style="stop-color:#F37A20"/>
		<stop  offset="1" style="stop-color:#F37A20"/>
		<stop  offset="1" style="stop-color:#B2D240"/>
	</radialGradient>
	<rect x="10.6" y="8.6" class="st0" width="34.9" height="50.9"/>
</g>
</svg>
