<?xml version="1.0" encoding="utf-8"?>
<!-- Generator: Adobe Illustrator 22.1.0, SVG Export Plug-In . SVG Version: 6.00 Build 0)  -->
<svg version="1.1" id="Layer_1" xmlns="http://www.w3.org/2000/svg" xmlns:xlink="http://www.w3.org/1999/xlink" x="0px" y="0px"
	 viewBox="0 0 63.3 67" style="enable-background:new 0 0 63.3 67;" xml:space="preserve">
<style type="text/css">
	.st0{clip-path:url(#SVGID_2_);fill:url(#SVGID_3_);}
	.st1{fill:#FFFFFF;}
	.st2{clip-path:url(#SVGID_5_);fill:#D2DD26;}
</style>
<g>
	<g>
		<defs>
			<path id="SVGID_1_" d="M24.8,13c-1.7,0-3.2,1.1-3.8,2.7l-1.5,4.2c-0.3,0.9-1.2,1.5-2.2,1.5h-7c-2.8,0-5,2.3-5,5v25.4
				c0,2.8,2.3,5,5,5H55c2.8,0,5-2.3,5-5V26.4c0-2.8-2.3-5-5-5h-7.2c-1,0-1.8-0.6-2.2-1.5l-1.5-4.2C43.5,14.1,42,13,40.3,13H24.8z"/>
		</defs>
		<clipPath id="SVGID_2_">
			<use xlink:href="#SVGID_1_"  style="overflow:visible;"/>
		</clipPath>
		
			<radialGradient id="SVGID_3_" cx="1578.4519" cy="320.6938" r="0.518" gradientTransform="matrix(47.8643 0 0 -47.8643 -75518.7969 15384.6924)" gradientUnits="userSpaceOnUse">
			<stop  offset="0" style="stop-color:#F37A20"/>
			<stop  offset="1" style="stop-color:#F37A20"/>
			<stop  offset="1" style="stop-color:#B2D240"/>
		</radialGradient>
		<rect x="5.3" y="13" class="st0" width="54.7" height="43.8"/>
	</g>
	<path class="st1" d="M46.6,37.8c0-7.7-6.3-14-14-14c-7.7,0-14,6.3-14,14c0,7.7,6.3,14,14,14C40.4,51.8,46.6,45.5,46.6,37.8"/>
	<path class="st1" d="M54.5,28.8c0-1-0.8-1.8-1.8-1.8c-1,0-1.8,0.8-1.8,1.8c0,1,0.8,1.8,1.8,1.8C53.6,30.6,54.5,29.8,54.5,28.8"/>
	<g>
		<defs>
			<rect id="SVGID_4_" x="24.5" y="29.6" width="16.3" height="16.3"/>
		</defs>
		<clipPath id="SVGID_5_">
			<use xlink:href="#SVGID_4_"  style="overflow:visible;"/>
		</clipPath>
		<path class="st2" d="M40.8,37.8c0-4.5-3.6-8.2-8.2-8.2c-4.5,0-8.2,3.6-8.2,8.2c0,4.5,3.6,8.2,8.2,8.2
			C37.1,45.9,40.8,42.3,40.8,37.8"/>
	</g>
</g>
</svg>
