<?xml version="1.0" encoding="utf-8"?>
<!-- Generator: Adobe Illustrator 22.1.0, SVG Export Plug-In . SVG Version: 6.00 Build 0)  -->
<svg version="1.1" id="Layer_1" xmlns="http://www.w3.org/2000/svg" xmlns:xlink="http://www.w3.org/1999/xlink" x="0px" y="0px"
	 viewBox="0 0 63.3 67" style="enable-background:new 0 0 63.3 67;" xml:space="preserve">
<style type="text/css">
	.st0{clip-path:url(#SVGID_2_);fill:url(#SVGID_3_);}
</style>
<g>
	<defs>
		<path id="SVGID_1_" d="M43.4,12.8L31.1,25.1L18.9,12.9c-1.4-1.4-3.1-2-4.9-2c-1.8,0-3.5,0.7-4.9,2c-2.7,2.7-2.7,7.1,0,9.8
			l12.2,12.2L9.2,47c-2.7,2.7-2.7,7.1,0,9.8c2.7,2.7,7.1,2.7,9.8,0l12.1-12.1L43.4,57c2.7,2.7,7.1,2.7,9.8,0c2.7-2.7,2.7-7.1,0-9.8
			L40.9,34.9l12.3-12.3c1.4-1.4,2-3.1,2-4.9s-0.7-3.5-2-4.9c-1.4-1.4-3.1-2-4.9-2S44.8,11.5,43.4,12.8"/>
	</defs>
	<clipPath id="SVGID_2_">
		<use xlink:href="#SVGID_1_"  style="overflow:visible;"/>
	</clipPath>
	
		<radialGradient id="SVGID_3_" cx="1568.7211" cy="330.628" r="0.66" gradientTransform="matrix(36.5475 0 0 -36.5475 -57301.6719 12118.5137)" gradientUnits="userSpaceOnUse">
		<stop  offset="0" style="stop-color:#F37A20"/>
		<stop  offset="1" style="stop-color:#F37A20"/>
		<stop  offset="1" style="stop-color:#B2D240"/>
	</radialGradient>
	<rect x="6.4" y="10.8" class="st0" width="49.4" height="48.9"/>
</g>
</svg>
