<?xml version="1.0" encoding="utf-8"?>
<!-- Generator: Adobe Illustrator 22.1.0, SVG Export Plug-In . SVG Version: 6.00 Build 0)  -->
<svg version="1.1" id="Layer_1" xmlns="http://www.w3.org/2000/svg" xmlns:xlink="http://www.w3.org/1999/xlink" x="0px" y="0px"
	 viewBox="0 0 63.3 67" style="enable-background:new 0 0 63.3 67;" xml:space="preserve">
<style type="text/css">
	.st0{clip-path:url(#SVGID_2_);fill:url(#SVGID_3_);}
</style>
<g>
	<defs>
		<path id="SVGID_1_" d="M19.5,19.5c0-1.5,1.2-2.7,2.7-2.7h5.2c1.5,0,2.7,1.2,2.7,2.7c0,1.7,0.3,3.4,0.8,5c0.3,1,0.1,2.1-0.7,2.8
			l-2.1,2.9c1.8,3.4,4,5.6,7.4,7.4l3-2.3c0.6-0.6,1.7-0.9,2.7-0.5c1.6,0.5,3.2,0.8,4.9,0.8c1.5,0,2.7,1.2,2.7,2.7v5.2
			c0,1.5-1.2,2.7-2.7,2.7C31.5,46.2,19.5,34.2,19.5,19.5 M14.6,4.5c-2.7,0-4.9,2.2-4.9,4.9v4.9H8.5c-0.7,0-1.2,0.5-1.2,1.2
			c0,0.7,0.5,1.2,1.2,1.2h4.9c0.7,0,1.2,0.5,1.2,1.2c0,0.7-0.5,1.2-1.2,1.2h-2.5c-0.7,0-1.2,0.5-1.2,1.2v6.1H8.5
			c-0.7,0-1.2,0.5-1.2,1.2c0,0.7,0.5,1.2,1.2,1.2h4.9c0.7,0,1.2,0.6,1.2,1.2s-0.5,1.2-1.2,1.2h-2.5c-0.7,0-1.2,0.5-1.2,1.2v6.1H8.5
			c-0.7,0-1.2,0.5-1.2,1.2c0,0.7,0.5,1.2,1.2,1.2h4.9c0.7,0,1.2,0.6,1.2,1.2c0,0.7-0.5,1.2-1.2,1.2h-2.5c-0.7,0-1.2,0.5-1.2,1.2v6.1
			H8.5c-0.7,0-1.2,0.5-1.2,1.2c0,0.7,0.5,1.2,1.2,1.2h4.9c0.7,0,1.2,0.5,1.2,1.2S14,56,13.4,56h-2.5c-0.7,0-1.2,0.5-1.2,1.2v1.2
			c0,2.7,2.2,4.9,4.9,4.9h36.8c2.7,0,4.9-2.2,4.9-4.9v-49c0-2.7-2.2-4.9-4.9-4.9H14.6z"/>
	</defs>
	<clipPath id="SVGID_2_">
		<use xlink:href="#SVGID_1_"  style="overflow:visible;"/>
	</clipPath>
	
		<radialGradient id="SVGID_3_" cx="1543.0002" cy="322.3149" r="1" gradientTransform="matrix(27.072 0 0 -27.072 -41740.3242 8759.6465)" gradientUnits="userSpaceOnUse">
		<stop  offset="0" style="stop-color:#F37A20"/>
		<stop  offset="1" style="stop-color:#F37A20"/>
		<stop  offset="1" style="stop-color:#B2D240"/>
	</radialGradient>
	<rect x="7.2" y="4.5" class="st0" width="49" height="58.8"/>
</g>
</svg>
