<?xml version="1.0" encoding="utf-8"?>
<!-- Generator: Adobe Illustrator 22.1.0, SVG Export Plug-In . SVG Version: 6.00 Build 0)  -->
<svg version="1.1" id="Layer_1" xmlns="http://www.w3.org/2000/svg" xmlns:xlink="http://www.w3.org/1999/xlink" x="0px" y="0px"
	 viewBox="0 0 63.3 67" style="enable-background:new 0 0 63.3 67;" xml:space="preserve">
<style type="text/css">
	.st0{clip-path:url(#SVGID_2_);fill:url(#SVGID_3_);}
	.st1{fill:none;stroke:#FFFFFF;stroke-miterlimit:10;}
	.st2{clip-path:url(#SVGID_5_);fill:url(#SVGID_6_);}
	.st3{clip-path:url(#SVGID_8_);fill:url(#SVGID_9_);}
	.st4{clip-path:url(#SVGID_11_);fill:url(#SVGID_12_);}
	.st5{clip-path:url(#SVGID_14_);fill:url(#SVGID_15_);}
	.st6{fill:#FFFFFF;}
	.st7{clip-path:url(#SVGID_17_);fill:#D2DD26;}
	.st8{fill:none;stroke:#0091B5;stroke-width:2;stroke-miterlimit:10;}
</style>
<g>
	<g>
		<defs>
			<path id="SVGID_1_" d="M23,10.5c-0.7,0-1.3,0.6-1.3,1.3v2.3c0,0.7,0.6,1.3,1.3,1.3h11.1v-5H23z"/>
		</defs>
		<clipPath id="SVGID_2_">
			<use xlink:href="#SVGID_1_"  style="overflow:visible;"/>
		</clipPath>
		
			<radialGradient id="SVGID_3_" cx="1621.0841" cy="330.0575" r="0.4268" gradientTransform="matrix(-180.1667 -120.6014 -120.6014 180.1667 331918.0938 136100.7031)" gradientUnits="userSpaceOnUse">
			<stop  offset="0" style="stop-color:#F37A20"/>
			<stop  offset="1" style="stop-color:#F37A20"/>
			<stop  offset="1" style="stop-color:#B2D240"/>
		</radialGradient>
		<polygon class="st0" points="30.3,21.3 19.4,14 25.5,4.8 36.4,12.1 		"/>
	</g>
	<path class="st1" d="M34.1,10.5v5H23c-0.7,0-1.3-0.6-1.3-1.3v-2.3c0-0.7,0.6-1.3,1.3-1.3H34.1z"/>
	<g>
		<defs>
			<path id="SVGID_4_" d="M39.5,18c-1.2,0.7-2.2,1.7-2.9,3c-0.6,1.1-0.9,2.3-0.9,3.6c0,4.2,3.4,7.6,7.6,7.6c3.5,0,6.4-2.3,7.3-5.5
				V21h-0.6c-0.7-1.2-1.7-2.3-2.9-3H39.5z"/>
		</defs>
		<clipPath id="SVGID_5_">
			<use xlink:href="#SVGID_4_"  style="overflow:visible;"/>
		</clipPath>
		
			<radialGradient id="SVGID_6_" cx="1627.7151" cy="336.016" r="0.4268" gradientTransform="matrix(-85.728 -57.3853 -57.3853 85.728 158882.3438 64634.1914)" gradientUnits="userSpaceOnUse">
			<stop  offset="0" style="stop-color:#F37A20"/>
			<stop  offset="1" style="stop-color:#F37A20"/>
			<stop  offset="1" style="stop-color:#B2D240"/>
		</radialGradient>
		<polygon class="st2" points="45.9,39.1 29.1,27.8 40.2,11.1 57.1,22.4 		"/>
	</g>
	<g>
		<defs>
			<path id="SVGID_7_" d="M19.2,18c-1.6,0-2.9,1.3-2.9,2.9v34.2c0,1.6,1.3,2.9,2.9,2.9h28.4c1.6,0,2.9-1.3,2.9-2.9V34.3H36.1
				c-1.1,0-1.9-0.9-1.9-1.9V18H19.2z"/>
		</defs>
		<clipPath id="SVGID_8_">
			<use xlink:href="#SVGID_7_"  style="overflow:visible;"/>
		</clipPath>
		
			<radialGradient id="SVGID_9_" cx="1620.6528" cy="329.6812" r="0.4268" gradientTransform="matrix(-197.7373 -132.3629 -132.3629 197.7373 364171.6875 149385.2031)" gradientUnits="userSpaceOnUse">
			<stop  offset="0" style="stop-color:#F37A20"/>
			<stop  offset="1" style="stop-color:#F37A20"/>
			<stop  offset="1" style="stop-color:#B2D240"/>
		</radialGradient>
		<polygon class="st3" points="39.9,73.8 -2.1,45.6 26.9,2.2 69,30.4 		"/>
	</g>
	<g>
		<defs>
			<path id="SVGID_10_" d="M10.1,14C9.5,14,9,14.5,9,15.1V20c0,0.6,0.5,1.1,1.1,1.1h24.1v-7H10.1z"/>
		</defs>
		<clipPath id="SVGID_11_">
			<use xlink:href="#SVGID_10_"  style="overflow:visible;"/>
		</clipPath>
		
			<radialGradient id="SVGID_12_" cx="1620.6885" cy="329.7339" r="0.4268" gradientTransform="matrix(-191.5571 -128.226 -128.226 191.5571 352775.0312 144712.5625)" gradientUnits="userSpaceOnUse">
			<stop  offset="0" style="stop-color:#F37A20"/>
			<stop  offset="1" style="stop-color:#F37A20"/>
			<stop  offset="1" style="stop-color:#B2D240"/>
		</radialGradient>
		<polygon class="st4" points="26.4,32.6 5.8,18.9 16.8,2.4 37.3,16.2 		"/>
	</g>
	<path class="st1" d="M34.1,14v7H10.1C9.5,21,9,20.5,9,20v-4.9c0-0.6,0.5-1.1,1.1-1.1H34.1z"/>
	<g>
		<defs>
			<path id="SVGID_13_" d="M39.5,18c-1.2,0.7-2.2,1.7-2.9,3h13.3c-0.7-1.2-1.7-2.3-2.9-3c-1.1-0.6-2.4-1-3.8-1
				C41.9,17,40.6,17.4,39.5,18"/>
		</defs>
		<clipPath id="SVGID_14_">
			<use xlink:href="#SVGID_13_"  style="overflow:visible;"/>
		</clipPath>
		
			<radialGradient id="SVGID_15_" cx="1624.9824" cy="333.5163" r="0.4268" gradientTransform="matrix(-109.2911 -73.1581 -73.1581 109.2911 202048.7344 82474.2266)" gradientUnits="userSpaceOnUse">
			<stop  offset="0" style="stop-color:#F37A20"/>
			<stop  offset="1" style="stop-color:#F37A20"/>
			<stop  offset="1" style="stop-color:#B2D240"/>
		</radialGradient>
		<polygon class="st5" points="45.8,27.2 34.7,19.8 40.7,10.9 51.7,18.3 		"/>
	</g>
	<path class="st1" d="M49.9,21H36.6c0.7-1.3,1.7-2.3,2.9-3c1.1-0.6,2.4-1,3.8-1c1.4,0,2.6,0.4,3.8,1C48.2,18.7,49.2,19.8,49.9,21z"
		/>
	<path class="st6" d="M50.8,24.6c0,0.7-0.1,1.4-0.3,2.1c-0.9,3.2-3.8,5.5-7.3,5.5c-4.2,0-7.6-3.4-7.6-7.6c0-1.3,0.3-2.5,0.9-3.6
		c0.7-1.3,1.7-2.3,2.9-3c1.1-0.6,2.4-1,3.8-1c1.4,0,2.6,0.4,3.8,1c1.2,0.7,2.2,1.7,2.9,3h0.6v1.5C50.7,23.2,50.8,23.9,50.8,24.6"/>
	<g>
		<defs>
			<rect id="SVGID_16_" x="35.6" y="17" width="15.2" height="15.2"/>
		</defs>
		<clipPath id="SVGID_17_">
			<use xlink:href="#SVGID_16_"  style="overflow:visible;"/>
		</clipPath>
		<path class="st7" d="M50.8,24.6c0,0.7-0.1,1.4-0.3,2.1c-0.9,3.2-3.8,5.5-7.3,5.5c-4.2,0-7.6-3.4-7.6-7.6c0-1.3,0.3-2.5,0.9-3.6
			c0.7-1.3,1.7-2.3,2.9-3c1.1-0.6,2.4-1,3.8-1c1.4,0,2.6,0.4,3.8,1c1.2,0.7,2.2,1.7,2.9,3c0.3,0.5,0.5,1,0.6,1.5
			C50.7,23.2,50.8,23.9,50.8,24.6"/>
	</g>
	<line class="st8" x1="40" y1="24.6" x2="46.4" y2="24.6"/>
</g>
</svg>
