<?xml version="1.0" encoding="utf-8"?>
<!-- Generator: Adobe Illustrator 22.1.0, SVG Export Plug-In . SVG Version: 6.00 Build 0)  -->
<svg version="1.1" id="Layer_1" xmlns="http://www.w3.org/2000/svg" xmlns:xlink="http://www.w3.org/1999/xlink" x="0px" y="0px"
	 viewBox="0 0 63.3 67" style="enable-background:new 0 0 63.3 67;" xml:space="preserve">
<style type="text/css">
	.st0{clip-path:url(#SVGID_2_);fill:url(#SVGID_3_);}
</style>
<g>
	<defs>
		<path id="SVGID_1_" d="M51.6,15.4L23.5,43.5L11.2,31.3c-1-1-2.3-1.5-3.7-1.5s-2.7,0.5-3.7,1.5c-2,2-2,5.3,0,7.3l15.9,15.9
			c2,2,5.3,2,7.3,0l31.8-31.8c1-1,1.5-2.3,1.5-3.7c0-1.3-0.5-2.7-1.5-3.7c-1-1-2.3-1.5-3.7-1.5C53.9,13.9,52.6,14.4,51.6,15.4"/>
	</defs>
	<clipPath id="SVGID_2_">
		<use xlink:href="#SVGID_1_"  style="overflow:visible;"/>
	</clipPath>
	
		<radialGradient id="SVGID_3_" cx="1568.9563" cy="321.441" r="0.5245" gradientTransform="matrix(48.3342 0 0 -48.3342 -75802.9375 15571.5479)" gradientUnits="userSpaceOnUse">
		<stop  offset="0" style="stop-color:#F37A20"/>
		<stop  offset="1" style="stop-color:#F37A20"/>
		<stop  offset="1" style="stop-color:#B2D240"/>
	</radialGradient>
	<rect x="1.9" y="13.9" class="st0" width="58.5" height="42.6"/>
</g>
</svg>
