<?xml version="1.0" encoding="utf-8"?>
<!-- Generator: Adobe Illustrator 22.1.0, SVG Export Plug-In . SVG Version: 6.00 Build 0)  -->
<svg version="1.1" id="Layer_1" xmlns="http://www.w3.org/2000/svg" xmlns:xlink="http://www.w3.org/1999/xlink" x="0px" y="0px"
	 viewBox="0 0 63.3 67" style="enable-background:new 0 0 63.3 67;" xml:space="preserve">
<style type="text/css">
	.st0{clip-path:url(#SVGID_2_);fill:url(#SVGID_3_);}
</style>
<g>
	<defs>
		<path id="SVGID_1_" d="M21,13.1l-0.2,0.3c-1.4,1.7-1.3,4.4,0.2,5.9l13.7,14.4L21.3,48c-1.5,1.6-1.6,4.2-0.1,5.9l0.3,0.3
			c1.4,1.7,3.7,1.8,5.2,0.2L42.8,37c0.8-0.8,1.1-1.9,1.2-3c0.1-1.3-0.3-2.6-1.2-3.5L26.2,12.9c-0.7-0.8-1.6-1.1-2.5-1.1
			C22.7,11.8,21.7,12.2,21,13.1"/>
	</defs>
	<clipPath id="SVGID_2_">
		<use xlink:href="#SVGID_1_"  style="overflow:visible;"/>
	</clipPath>
	
		<radialGradient id="SVGID_3_" cx="1671.2855" cy="330.9385" r="0.5874" gradientTransform="matrix(-27.4516 0 0 -31.1393 45911.375 10338.8682)" gradientUnits="userSpaceOnUse">
		<stop  offset="0" style="stop-color:#F37A20"/>
		<stop  offset="1" style="stop-color:#F37A20"/>
		<stop  offset="1" style="stop-color:#B2D240"/>
	</radialGradient>
	<rect x="19.3" y="11.8" class="st0" width="24.8" height="44.2"/>
</g>
</svg>
