<?xml version="1.0" encoding="utf-8"?>
<!-- Generator: Adobe Illustrator 22.1.0, SVG Export Plug-In . SVG Version: 6.00 Build 0)  -->
<svg version="1.1" id="Layer_1" xmlns="http://www.w3.org/2000/svg" xmlns:xlink="http://www.w3.org/1999/xlink" x="0px" y="0px"
	 viewBox="0 0 63.3 67" style="enable-background:new 0 0 63.3 67;" xml:space="preserve">
<style type="text/css">
	.st0{clip-path:url(#SVGID_2_);fill:url(#SVGID_3_);}
	.st1{fill:#FFFFFF;}
	.st2{fill:none;stroke:#FFFFFF;stroke-width:4;stroke-miterlimit:10;}
	.st3{clip-path:url(#SVGID_5_);fill:#D2DD26;}
</style>
<g>
	<g>
		<defs>
			<path id="SVGID_1_" d="M12.3,25.4C12.3,36,20.9,62,31.5,62c10.6,0,19.2-26,19.2-36.6S42.1,6.2,31.5,6.2
				C20.9,6.2,12.3,14.8,12.3,25.4"/>
		</defs>
		<clipPath id="SVGID_2_">
			<use xlink:href="#SVGID_1_"  style="overflow:visible;"/>
		</clipPath>
		
			<radialGradient id="SVGID_3_" cx="1571.0563" cy="328.0076" r="0.5454" gradientTransform="matrix(43.9146 0 0 -43.9146 -68960.7422 14438.4033)" gradientUnits="userSpaceOnUse">
			<stop  offset="0" style="stop-color:#F37A20"/>
			<stop  offset="1" style="stop-color:#F37A20"/>
			<stop  offset="1" style="stop-color:#B2D240"/>
		</radialGradient>
		<rect x="12.3" y="6.2" class="st0" width="38.4" height="55.8"/>
	</g>
	<path class="st1" d="M43,26.1c0,6.3-5.1,11.5-11.5,11.5c-6.3,0-11.5-5.1-11.5-11.5c0-6.3,5.1-11.5,11.5-11.5
		C37.8,14.6,43,19.7,43,26.1"/>
	<circle class="st2" cx="31.5" cy="26.1" r="11.5"/>
	<g>
		<defs>
			<rect id="SVGID_4_" x="20.9" y="15.4" width="21.3" height="21.3"/>
		</defs>
		<clipPath id="SVGID_5_">
			<use xlink:href="#SVGID_4_"  style="overflow:visible;"/>
		</clipPath>
		<path class="st3" d="M42.1,26.1c0-5.9-4.8-10.6-10.6-10.6c-5.9,0-10.6,4.8-10.6,10.6c0,5.9,4.8,10.6,10.6,10.6
			C37.4,36.7,42.1,32,42.1,26.1"/>
	</g>
</g>
</svg>
