<?xml version="1.0" encoding="utf-8"?>
<!-- Generator: Adobe Illustrator 22.1.0, SVG Export Plug-In . SVG Version: 6.00 Build 0)  -->
<svg version="1.1" id="Layer_1" xmlns="http://www.w3.org/2000/svg" xmlns:xlink="http://www.w3.org/1999/xlink" x="0px" y="0px"
	 viewBox="0 0 63.3 67" style="enable-background:new 0 0 63.3 67;" xml:space="preserve">
<style type="text/css">
	.st0{clip-path:url(#SVGID_2_);fill:url(#SVGID_3_);}
	.st1{clip-path:url(#SVGID_5_);fill:#D2DD26;}
	.st2{clip-path:url(#SVGID_7_);fill:url(#SVGID_8_);}
</style>
<g>
	<g>
		<defs>
			<path id="SVGID_1_" d="M30.4,21.3c-0.1,0.1-0.3,0.2-0.4,0.3l0,0l-2.8,2.9l-3.7,3.8l-0.9,1l-2.1,2.2L19,33l-1.6,1.7l-0.9,1
				l-0.5,0.5c-0.4,0.4-0.6,1-0.6,1.6v19.7c0,0.8,0.5,1.6,1.2,2c0.3,0.2,0.6,0.2,0.9,0.3c0,0,0.1,0,0.1,0h8.1c0.6,0,1.1-0.2,1.5-0.6
				c0.4-0.4,0.7-1,0.7-1.6v-3c0-1.2,0.9-2.2,2.1-2.2c0,0,0.1,0,0.1,0H34c0,0,0.1,0,0.1,0c1.2,0.1,2.1,1,2.1,2.2v3
				c0,1.2,1,2.2,2.2,2.2h7.2c0,0,0.1,0,0.1,0c1.2-0.1,2.1-1,2.1-2.2V37.3c0-0.6-0.2-1.2-0.7-1.6l-1.4-1.4l-2.3-2.3l-3.7-3.7
				l-0.9-0.9l-4.7-4.7l-1-1c-0.1-0.1-0.3-0.3-0.4-0.3C32.4,21.1,32,21,31.6,21C31.2,21,30.8,21.1,30.4,21.3"/>
		</defs>
		<clipPath id="SVGID_2_">
			<use xlink:href="#SVGID_1_"  style="overflow:visible;"/>
		</clipPath>
		
			<radialGradient id="SVGID_3_" cx="1573.9028" cy="328.1707" r="0.437" gradientTransform="matrix(40.9535 0 0 -40.9535 -64425.3281 13480.0645)" gradientUnits="userSpaceOnUse">
			<stop  offset="0" style="stop-color:#F37A20"/>
			<stop  offset="1" style="stop-color:#F37A20"/>
			<stop  offset="1" style="stop-color:#B2D240"/>
		</radialGradient>
		<rect x="15.2" y="21" class="st0" width="32.6" height="38.7"/>
	</g>
	<g>
		<defs>
			<rect id="SVGID_4_" x="5" y="8.8" width="53" height="29.8"/>
		</defs>
		<clipPath id="SVGID_5_">
			<use xlink:href="#SVGID_4_"  style="overflow:visible;"/>
		</clipPath>
		<path class="st1" d="M5.9,33.3L29.2,9.7c1.2-1.2,3.2-1.2,4.4,0l23.5,23.5c2,2,0.6,5.3-2.2,5.3c-0.8,0-1.6-0.3-2.2-0.9L33.6,18.8
			c-1.2-1.2-3.2-1.2-4.4,0.1L11.1,37.6c-0.6,0.6-1.4,1-2.2,0.9l-0.8,0C5.3,38.5,4,35.2,5.9,33.3"/>
	</g>
	<g>
		<defs>
			<path id="SVGID_6_" d="M42.5,13c-0.1,0.2-0.2,0.4-0.2,0.7l-0.1,4.2l4.5,4.5c0.2,0.2,0.5,0.1,0.5-0.2l0.1-6.5
				c0-0.3-0.1-0.5-0.3-0.7l-2.3-2.3c0,0-0.5-0.4-1-0.4C43.3,12.2,42.9,12.4,42.5,13"/>
		</defs>
		<clipPath id="SVGID_7_">
			<use xlink:href="#SVGID_6_"  style="overflow:visible;"/>
		</clipPath>
		
			<radialGradient id="SVGID_8_" cx="1434.5881" cy="332.9379" r="0.437" gradientTransform="matrix(9.4297 0.1551 0.1497 -9.1007 -13532.9072 2824.7581)" gradientUnits="userSpaceOnUse">
			<stop  offset="0" style="stop-color:#F37A20"/>
			<stop  offset="1" style="stop-color:#F37A20"/>
			<stop  offset="1" style="stop-color:#B2D240"/>
		</radialGradient>
		<polygon class="st2" points="42.2,12.1 47.4,12.2 47.3,22.6 42,22.5 		"/>
	</g>
</g>
</svg>
