<?xml version="1.0" encoding="utf-8"?>
<!-- Generator: Adobe Illustrator 22.1.0, SVG Export Plug-In . SVG Version: 6.00 Build 0)  -->
<svg version="1.1" id="Layer_1" xmlns="http://www.w3.org/2000/svg" xmlns:xlink="http://www.w3.org/1999/xlink" x="0px" y="0px"
	 viewBox="0 0 63.3 67" style="enable-background:new 0 0 63.3 67;" xml:space="preserve">
<style type="text/css">
	.st0{clip-path:url(#SVGID_2_);fill:url(#SVGID_3_);}
	.st1{clip-path:url(#SVGID_5_);fill:url(#SVGID_6_);}
	.st2{clip-path:url(#SVGID_8_);fill:#D2DD26;}
</style>
<g>
	<g>
		<defs>
			<path id="SVGID_1_" d="M10.3,42.9c-3,0-5.4,2.4-5.4,5.4s2.4,5.4,5.4,5.4h43.3c3,0,5.4-2.4,5.4-5.4s-2.4-5.4-5.4-5.4H10.3z"/>
		</defs>
		<clipPath id="SVGID_2_">
			<use xlink:href="#SVGID_1_"  style="overflow:visible;"/>
		</clipPath>
		
			<radialGradient id="SVGID_3_" cx="1531.7097" cy="323.5726" r="0.7279" gradientTransform="matrix(26.4923 0 0 -40.2641 -40546.5664 13076.6367)" gradientUnits="userSpaceOnUse">
			<stop  offset="0" style="stop-color:#F37A20"/>
			<stop  offset="1" style="stop-color:#F37A20"/>
			<stop  offset="1" style="stop-color:#B2D240"/>
		</radialGradient>
		<rect x="4.9" y="42.9" class="st0" width="54.1" height="10.8"/>
	</g>
	<g>
		<defs>
			<path id="SVGID_4_" d="M10.3,12.8c-3,0-5.4,2.4-5.4,5.4s2.4,5.4,5.4,5.4h43.3c3,0,5.4-2.4,5.4-5.4s-2.4-5.4-5.4-5.4H10.3z"/>
		</defs>
		<clipPath id="SVGID_5_">
			<use xlink:href="#SVGID_4_"  style="overflow:visible;"/>
		</clipPath>
		
			<radialGradient id="SVGID_6_" cx="1531.7097" cy="323.2934" r="0.7279" gradientTransform="matrix(26.4923 0 0 -40.2641 -40546.5664 13035.3037)" gradientUnits="userSpaceOnUse">
			<stop  offset="0" style="stop-color:#F37A20"/>
			<stop  offset="1" style="stop-color:#F37A20"/>
			<stop  offset="1" style="stop-color:#B2D240"/>
		</radialGradient>
		<rect x="4.9" y="12.8" class="st1" width="54.1" height="10.8"/>
	</g>
	<g>
		<defs>
			<rect id="SVGID_7_" x="4.9" y="27.9" width="34" height="10.8"/>
		</defs>
		<clipPath id="SVGID_8_">
			<use xlink:href="#SVGID_7_"  style="overflow:visible;"/>
		</clipPath>
		<path class="st2" d="M33.5,38.6H10.3c-3,0-5.4-2.4-5.4-5.4c0-3,2.4-5.4,5.4-5.4h23.3c3,0,5.4,2.4,5.4,5.4
			C38.9,36.2,36.5,38.6,33.5,38.6"/>
	</g>
</g>
</svg>
