<?xml version="1.0" encoding="utf-8"?>
<!-- Generator: Adobe Illustrator 22.1.0, SVG Export Plug-In . SVG Version: 6.00 Build 0)  -->
<svg version="1.1" id="Layer_1" xmlns="http://www.w3.org/2000/svg" xmlns:xlink="http://www.w3.org/1999/xlink" x="0px" y="0px"
	 viewBox="0 0 63.3 67" style="enable-background:new 0 0 63.3 67;" xml:space="preserve">
<style type="text/css">
	.st0{clip-path:url(#SVGID_2_);fill:url(#SVGID_3_);}
	.st1{fill:#FFFFFF;}
	.st2{clip-path:url(#SVGID_5_);fill:#D2DD26;}
</style>
<g>
	<g>
		<defs>
			<path id="SVGID_1_" d="M13.9,9.1C11.2,9.1,9,11.3,9,14v28.5c0,2.7,2.2,4.9,4.9,4.9h7.7c1,0,1.9,0.8,1.9,1.9v9.2
				c0,0.6,0.7,0.9,1.1,0.5l11.3-10.5c0.7-0.7,1.7-1,2.6-1h12.1c2.5,0,4.5-2,4.5-4.5V13.6c0-2.5-2-4.5-4.5-4.5H13.9z"/>
		</defs>
		<clipPath id="SVGID_2_">
			<use xlink:href="#SVGID_1_"  style="overflow:visible;"/>
		</clipPath>
		
			<radialGradient id="SVGID_3_" cx="1580.5565" cy="324.4364" r="0.4892" gradientTransform="matrix(49.082 0 0 -49.082 -77544.875 15958.0371)" gradientUnits="userSpaceOnUse">
			<stop  offset="0" style="stop-color:#F37A20"/>
			<stop  offset="1" style="stop-color:#F37A20"/>
			<stop  offset="1" style="stop-color:#B2D240"/>
		</radialGradient>
		<rect x="9" y="9.1" class="st0" width="46.1" height="50.1"/>
	</g>
	<path class="st1" d="M23.4,28.2c0-2-1.6-3.6-3.6-3.6c-2,0-3.6,1.6-3.6,3.6c0,2,1.6,3.6,3.6,3.6C21.8,31.8,23.4,30.2,23.4,28.2"/>
	<path class="st1" d="M35.4,27.6c0-2-1.6-3.6-3.6-3.6c-2,0-3.6,1.6-3.6,3.6c0,2,1.6,3.6,3.6,3.6C33.7,31.3,35.4,29.6,35.4,27.6"/>
	<path class="st1" d="M47.3,27.6c0-2-1.6-3.6-3.6-3.6c-2,0-3.6,1.6-3.6,3.6c0,2,1.6,3.6,3.6,3.6C45.7,31.3,47.3,29.6,47.3,27.6"/>
	<g>
		<defs>
			<rect id="SVGID_4_" x="37.2" y="9.1" width="17.8" height="14.5"/>
		</defs>
		<clipPath id="SVGID_5_">
			<use xlink:href="#SVGID_4_"  style="overflow:visible;"/>
		</clipPath>
		<path class="st2" d="M55.1,13.6V23c-1.3,0.4-2.7,0.6-4.2,0.6c-7.5,0-13.6-5.2-13.6-11.7c0-0.9,0.1-1.9,0.4-2.8h12.9
			C53,9.1,55.1,11.1,55.1,13.6"/>
	</g>
</g>
</svg>
