<?xml version="1.0" encoding="utf-8"?>
<!-- Generator: Adobe Illustrator 22.1.0, SVG Export Plug-In . SVG Version: 6.00 Build 0)  -->
<svg version="1.1" id="Layer_1" xmlns="http://www.w3.org/2000/svg" xmlns:xlink="http://www.w3.org/1999/xlink" x="0px" y="0px"
	 viewBox="0 0 63.3 67" style="enable-background:new 0 0 63.3 67;" xml:space="preserve">
<style type="text/css">
	.st0{clip-path:url(#SVGID_2_);fill:#D2DD26;}
	.st1{clip-path:url(#SVGID_4_);fill:#D2DD26;}
	.st2{clip-path:url(#SVGID_6_);fill:url(#SVGID_7_);}
</style>
<g>
	<g>
		<defs>
			<rect id="SVGID_1_" x="28.3" y="8.2" width="7.7" height="6.3"/>
		</defs>
		<clipPath id="SVGID_2_">
			<use xlink:href="#SVGID_1_"  style="overflow:visible;"/>
		</clipPath>
		<path class="st0" d="M36.1,12v2.5c-1.3-0.3-2.6-0.5-4-0.5c-1.3,0-2.6,0.2-3.8,0.5V12c0-2.1,1.7-3.9,3.9-3.9c1.1,0,2,0.4,2.7,1.1
			C35.6,10,36.1,11,36.1,12"/>
	</g>
	<g>
		<defs>
			<rect id="SVGID_3_" x="27.1" y="54.3" width="10.2" height="5.1"/>
		</defs>
		<clipPath id="SVGID_4_">
			<use xlink:href="#SVGID_3_"  style="overflow:visible;"/>
		</clipPath>
		<path class="st1" d="M32.2,59.4L32.2,59.4c-2.8,0-5.1-2.3-5.1-5.1v-0.1h10.2v0.1C37.3,57.2,35,59.4,32.2,59.4"/>
	</g>
	<g>
		<defs>
			<path id="SVGID_5_" d="M31.4,13.7c-8.3,0-15,6.7-15,15v9.4c0,0.5-0.3,1-0.8,1.3c-2.5,1.3-4.2,3.8-4.2,6.8V50
				c0,1.8,1.5,3.3,3.3,3.3h35.1c1.8,0,3.3-1.5,3.3-3.3v-3.8c0-3-1.7-5.6-4.2-6.8c-0.5-0.2-0.8-0.7-0.8-1.3v-9.4c0-8.3-6.7-15-15-15
				H31.4z"/>
		</defs>
		<clipPath id="SVGID_6_">
			<use xlink:href="#SVGID_5_"  style="overflow:visible;"/>
		</clipPath>
		
			<radialGradient id="SVGID_7_" cx="1565.5753" cy="327.9497" r="0.4543" gradientTransform="matrix(44.7482 0 0 -44.7482 -70024.5469 14708.6641)" gradientUnits="userSpaceOnUse">
			<stop  offset="0" style="stop-color:#F37A20"/>
			<stop  offset="1" style="stop-color:#F37A20"/>
			<stop  offset="1" style="stop-color:#B2D240"/>
		</radialGradient>
		<rect x="11.3" y="13.7" class="st2" width="41.7" height="39.6"/>
	</g>
</g>
</svg>
