<?xml version="1.0" encoding="utf-8"?>
<!-- Generator: Adobe Illustrator 22.1.0, SVG Export Plug-In . SVG Version: 6.00 Build 0)  -->
<svg version="1.1" id="Layer_1" xmlns="http://www.w3.org/2000/svg" xmlns:xlink="http://www.w3.org/1999/xlink" x="0px" y="0px"
	 viewBox="0 0 63.3 67" style="enable-background:new 0 0 63.3 67;" xml:space="preserve">
<style type="text/css">
	.st0{clip-path:url(#SVGID_2_);fill:url(#SVGID_3_);}
	.st1{fill:#FFFFFF;}
	.st2{clip-path:url(#SVGID_5_);fill:#D2DD26;}
</style>
<g>
	<g>
		<defs>
			<path id="SVGID_1_" d="M4.6,30.1c0,11.8,9.6,21.4,21.4,21.4c4.9,0,9.3-1.6,12.9-4.4l11.8,10.9c1.5,1.3,3.8,1.3,5.1-0.2l2.2-2.3
				c1.4-1.5,1.3-3.8-0.2-5.1L45.5,39c1.2-2.7,1.9-5.7,1.9-8.9c0-11.8-9.6-21.4-21.4-21.4C14.2,8.7,4.6,18.3,4.6,30.1"/>
		</defs>
		<clipPath id="SVGID_2_">
			<use xlink:href="#SVGID_1_"  style="overflow:visible;"/>
		</clipPath>
		
			<radialGradient id="SVGID_3_" cx="1567.5935" cy="325.5634" r="0.6276" gradientTransform="matrix(41.7885 0 0 -41.7885 -65475.6328 13638.6641)" gradientUnits="userSpaceOnUse">
			<stop  offset="0" style="stop-color:#F37A20"/>
			<stop  offset="1" style="stop-color:#F37A20"/>
			<stop  offset="1" style="stop-color:#B2D240"/>
		</radialGradient>
		<rect x="4.6" y="8.7" class="st0" width="54.8" height="50.8"/>
	</g>
	<path class="st1" d="M41.6,30.1c0,8.6-7,15.6-15.6,15.6c-8.6,0-15.6-7-15.6-15.6c0-8.6,7-15.6,15.6-15.6
		C34.6,14.5,41.6,21.5,41.6,30.1"/>
	<g>
		<defs>
			<rect id="SVGID_4_" x="13.4" y="17.5" width="25.3" height="25.3"/>
		</defs>
		<clipPath id="SVGID_5_">
			<use xlink:href="#SVGID_4_"  style="overflow:visible;"/>
		</clipPath>
		<path class="st2" d="M38.6,30.1c0,7-5.7,12.6-12.6,12.6c-7,0-12.6-5.7-12.6-12.6c0-7,5.7-12.6,12.6-12.6
			C33,17.5,38.6,23.1,38.6,30.1"/>
	</g>
</g>
</svg>
