<?xml version="1.0" encoding="utf-8"?>
<!-- Generator: Adobe Illustrator 22.1.0, SVG Export Plug-In . SVG Version: 6.00 Build 0)  -->
<svg version="1.1" id="Layer_1" xmlns="http://www.w3.org/2000/svg" xmlns:xlink="http://www.w3.org/1999/xlink" x="0px" y="0px"
	 viewBox="0 0 63.3 67" style="enable-background:new 0 0 63.3 67;" xml:space="preserve">
<style type="text/css">
	.st0{clip-path:url(#SVGID_2_);fill:url(#SVGID_3_);}
	.st1{clip-path:url(#SVGID_5_);fill:#D2DD26;}
	.st2{clip-path:url(#SVGID_7_);fill:url(#SVGID_8_);}
</style>
<g>
	<g>
		<defs>
			<path id="SVGID_1_" d="M13.9,38.4C13.9,28.2,22,20,32,20c10,0,18.1,8.3,18.1,18.5c0,10.2-8.1,18.5-18.1,18.5
				C22,56.9,13.9,48.6,13.9,38.4 M25.9,12.6c-2.2,0.5-4.3,1.4-6.2,2.4l-0.7-0.9c-0.7-1-1.8-1.5-3-1.5c-0.8,0-1.6,0.2-2.2,0.8
				c-1.6,1.3-2,3.6-0.7,5.3l0.6,0.9C9,24.3,6,31,6,38.4C6,53.1,17.6,65,32,65s26-11.9,26-26.6c0-7.5-3-14.3-7.9-19.1l0.4-0.6
				c0.5-0.7,0.8-1.5,0.8-2.3c0-1.1-0.5-2.3-1.4-3c-1.6-1.3-4-1-5.2,0.7l-0.6,0.8c-2.1-1.1-4.3-1.9-6.6-2.4c-1.8-0.4-3.6-0.6-5.4-0.6
				C29.9,11.8,27.9,12.1,25.9,12.6"/>
		</defs>
		<clipPath id="SVGID_2_">
			<use xlink:href="#SVGID_1_"  style="overflow:visible;"/>
		</clipPath>
		
			<radialGradient id="SVGID_3_" cx="1584.8932" cy="325.3932" r="0.6061" gradientTransform="matrix(42.9006 0 0 -43.8518 -67960.8203 14307.4961)" gradientUnits="userSpaceOnUse">
			<stop  offset="0" style="stop-color:#F37A20"/>
			<stop  offset="1" style="stop-color:#F37A20"/>
			<stop  offset="1" style="stop-color:#B2D240"/>
		</radialGradient>
		<rect x="6" y="11.8" class="st0" width="52" height="53.2"/>
	</g>
	<g>
		<defs>
			<rect id="SVGID_4_" x="25.9" y="26.9" width="11.5" height="23.1"/>
		</defs>
		<clipPath id="SVGID_5_">
			<use xlink:href="#SVGID_4_"  style="overflow:visible;"/>
		</clipPath>
		<path class="st1" d="M35,42.8c0-0.7-0.3-1.3-0.8-1.8c-0.5-0.5-1.3-1-2.5-1.4c-1.7-0.5-2.9-1.2-3.6-2c-0.8-0.8-1.1-1.9-1.1-3.2
			c0-1.3,0.4-2.4,1.1-3.2c0.7-0.8,1.8-1.3,3.1-1.5c0,0-0.5-2.2,0-2.6c0.3-0.3,1.4-0.3,1.7,0c0.5,0.5,0,2.6,0,2.6
			c1.3,0.2,2.3,0.7,3.1,1.7c0.7,0.9,2.2,2.7,1.1,3.9c-0.4,0.4-1.8,0.4-2.1,0c-0.8-0.8-0.3-2-0.8-2.7c-0.5-0.7-1.2-1-2.1-1
			c-0.9,0-1.6,0.2-2.1,0.7c-0.5,0.5-0.7,1.2-0.7,2c0,0.8,0.3,1.5,0.8,1.9c0.5,0.5,1.4,0.9,2.6,1.3c1.2,0.4,2.1,0.8,2.8,1.3
			c0.7,0.5,1.2,1,1.5,1.7c0.3,0.6,0.5,1.4,0.5,2.2c0,1.3-0.4,2.4-1.2,3.2c-0.8,0.8-1.9,1.3-3.3,1.5c0,0,0.4,1.9,0,2.3
			c-0.3,0.3-1.4,0.3-1.7,0c-0.4-0.4,0-2.3,0-2.3c-1.4-0.1-2.6-0.7-3.4-1.6c-0.8-0.9-2.3-2.6-1.2-3.7c0.4-0.4,1.8-0.4,2.2,0
			c0.8,0.8,0.3,2,0.9,2.6c0.6,0.6,1.4,0.9,2.4,0.9c1,0,1.8-0.3,2.4-0.8C34.7,44.3,35,43.7,35,42.8"/>
	</g>
	<g>
		<defs>
			<path id="SVGID_6_" d="M26.1,3c-2.2,0-3.9,1.8-3.9,4c0,1.1,0.4,2.1,1.1,2.8c0.7,0.7,1.7,1.2,2.8,1.2h1.1v1.6
				c1.5-0.4,3.1-0.6,4.8-0.6c1.5,0,2.9,0.2,4.3,0.5v-1.5h1.5c2.2,0,3.9-1.8,3.9-4c0-1.1-0.4-2.1-1.1-2.8C39.9,3.5,38.9,3,37.8,3
				H26.1z"/>
		</defs>
		<clipPath id="SVGID_7_">
			<use xlink:href="#SVGID_6_"  style="overflow:visible;"/>
		</clipPath>
		
			<radialGradient id="SVGID_8_" cx="1512.7301" cy="324.7962" r="0.6061" gradientTransform="matrix(12.6291 0 0 -12.9091 -19072.4648 4200.6841)" gradientUnits="userSpaceOnUse">
			<stop  offset="0" style="stop-color:#F37A20"/>
			<stop  offset="1" style="stop-color:#F37A20"/>
			<stop  offset="1" style="stop-color:#B2D240"/>
		</radialGradient>
		<rect x="22.2" y="3" class="st2" width="19.5" height="9.6"/>
	</g>
</g>
</svg>
