<?xml version="1.0" encoding="utf-8"?>
<!-- Generator: Adobe Illustrator 22.1.0, SVG Export Plug-In . SVG Version: 6.00 Build 0)  -->
<svg version="1.1" id="Layer_1" xmlns="http://www.w3.org/2000/svg" xmlns:xlink="http://www.w3.org/1999/xlink" x="0px" y="0px"
	 viewBox="0 0 63.3 67" style="enable-background:new 0 0 63.3 67;" xml:space="preserve">
<style type="text/css">
	.st0{clip-path:url(#SVGID_2_);fill:url(#SVGID_3_);}
	.st1{fill:#FFFFFF;}
	.st2{clip-path:url(#SVGID_5_);fill:#D2DD26;}
</style>
<g>
	<g>
		<defs>
			<path id="SVGID_1_" d="M28.8,9c-0.7,0-1.3,0.5-1.4,1.2l-1,5.3c-1.8,0.5-3.6,1.2-5.2,2.1l-4.3-2.9c-0.6-0.4-1.4-0.3-1.9,0.2
				l-3.8,3.8c-0.5,0.5-0.6,1.3-0.2,1.9l2.9,4.3c-1,1.6-1.7,3.4-2.2,5.3l-5,1c-0.7,0.1-1.2,0.7-1.2,1.4v5.3c0,0.7,0.5,1.3,1.2,1.4
				l5,1c0.5,1.9,1.3,3.8,2.3,5.4l-2.8,4.1c-0.4,0.6-0.3,1.4,0.2,1.9l3.8,3.8c0.5,0.5,1.3,0.6,1.9,0.2l4.2-2.8c1.7,1,3.5,1.7,5.5,2.2
				l0.9,4.9c0.1,0.7,0.7,1.2,1.4,1.2h5.3c0.7,0,1.3-0.5,1.4-1.2l1-5.1c1.9-0.5,3.7-1.3,5.3-2.3l4.2,2.9c0.6,0.4,1.4,0.3,1.9-0.2
				l3.8-3.8c0.5-0.5,0.6-1.3,0.2-1.9l-3-4.4c0.9-1.6,1.6-3.3,2-5.2l5.2-1c0.7-0.1,1.2-0.7,1.2-1.4v-5.3c0-0.7-0.5-1.3-1.2-1.4
				l-5.4-1c-0.5-1.8-1.2-3.5-2.1-5l3-4.5c0.4-0.6,0.3-1.4-0.2-1.9L48,14.6c-0.5-0.5-1.3-0.6-1.9-0.2l-4.5,3.1
				c-1.6-0.9-3.2-1.6-5-2.1l-1-5.3C35.5,9.5,34.9,9,34.2,9H28.8z"/>
		</defs>
		<clipPath id="SVGID_2_">
			<use xlink:href="#SVGID_1_"  style="overflow:visible;"/>
		</clipPath>
		
			<radialGradient id="SVGID_3_" cx="1463.1093" cy="328.7907" r="0.3994" gradientTransform="matrix(11.5359 0 0 -11.5359 -16846.75 3805.6589)" gradientUnits="userSpaceOnUse">
			<stop  offset="0" style="stop-color:#F37A20"/>
			<stop  offset="1" style="stop-color:#F37A20"/>
			<stop  offset="1" style="stop-color:#B2D240"/>
		</radialGradient>
		<rect x="5.7" y="9" class="st0" width="52" height="52"/>
	</g>
	<path class="st1" d="M31.7,22.4C24.7,22.4,19,28,19,35c0,7,5.6,12.6,12.6,12.6S44.3,42,44.3,35C44.3,28,38.6,22.4,31.7,22.4"/>
	<g>
		<defs>
			<rect id="SVGID_4_" x="26.1" y="29.4" width="11.2" height="11.2"/>
		</defs>
		<clipPath id="SVGID_5_">
			<use xlink:href="#SVGID_4_"  style="overflow:visible;"/>
		</clipPath>
		<path class="st2" d="M37.2,35c0-3.1-2.5-5.6-5.6-5.6c-3.1,0-5.6,2.5-5.6,5.6c0,3.1,2.5,5.6,5.6,5.6C34.7,40.6,37.2,38.1,37.2,35"
			/>
	</g>
</g>
</svg>
