<?xml version="1.0" encoding="utf-8"?>
<!-- Generator: Adobe Illustrator 22.1.0, SVG Export Plug-In . SVG Version: 6.00 Build 0)  -->
<svg version="1.1" id="Layer_1" xmlns="http://www.w3.org/2000/svg" xmlns:xlink="http://www.w3.org/1999/xlink" x="0px" y="0px"
	 viewBox="0 0 63.3 67" style="enable-background:new 0 0 63.3 67;" xml:space="preserve">
<style type="text/css">
	.st0{clip-path:url(#SVGID_2_);fill:url(#SVGID_3_);}
	.st1{fill:#FFFFFF;}
	.st2{clip-path:url(#SVGID_5_);fill:#D2DD26;}
</style>
<g>
	<g>
		<defs>
			<path id="SVGID_1_" d="M26.8,8.1L14,9.7c-3.5,0.5-6.5,3.6-6.8,7.1L6,29.7c-0.2,1.8,0.4,3.5,1.6,4.7l25.9,24.8
				c2.4,2.3,6.6,1.9,9.3-1l13.9-14.5c2.7-2.8,3-7,0.6-9.4L31.5,9.5c-1-1-2.4-1.5-3.9-1.5C27.3,8,27.1,8,26.8,8.1"/>
		</defs>
		<clipPath id="SVGID_2_">
			<use xlink:href="#SVGID_1_"  style="overflow:visible;"/>
		</clipPath>
		
			<radialGradient id="SVGID_3_" cx="1586.4683" cy="355.111" r="0.4332" gradientTransform="matrix(37.1519 -38.7373 -38.7373 -37.1519 -45154.7109 74680.0391)" gradientUnits="userSpaceOnUse">
			<stop  offset="0" style="stop-color:#F37A20"/>
			<stop  offset="1" style="stop-color:#F37A20"/>
			<stop  offset="1" style="stop-color:#B2D240"/>
		</radialGradient>
		<polygon class="st0" points="-20.8,35.8 31.7,-18.9 86.5,33.6 33.9,88.4 		"/>
	</g>
	<path class="st1" d="M23.9,16.5c-2.7-2.6-7.1-2.5-9.7,0.2c-2.6,2.7-2.5,7.1,0.2,9.7c2.7,2.6,7.1,2.5,9.7-0.2
		C26.7,23.5,26.6,19.1,23.9,16.5"/>
	<g>
		<defs>
			<rect id="SVGID_4_" x="13.2" y="15.6" width="11.7" height="11.7"/>
		</defs>
		<clipPath id="SVGID_5_">
			<use xlink:href="#SVGID_4_"  style="overflow:visible;"/>
		</clipPath>
		<path class="st2" d="M23.2,17.2c-2.3-2.2-6.1-2.2-8.3,0.2c-2.2,2.3-2.2,6.1,0.2,8.3c2.3,2.2,6.1,2.2,8.3-0.2
			C25.6,23.2,25.5,19.5,23.2,17.2"/>
	</g>
</g>
</svg>
