<?xml version="1.0" encoding="utf-8"?>
<!-- Generator: Adobe Illustrator 22.1.0, SVG Export Plug-In . SVG Version: 6.00 Build 0)  -->
<svg version="1.1" id="Layer_1" xmlns="http://www.w3.org/2000/svg" xmlns:xlink="http://www.w3.org/1999/xlink" x="0px" y="0px"
	 viewBox="0 0 63.3 67" style="enable-background:new 0 0 63.3 67;" xml:space="preserve">
<style type="text/css">
	.st0{clip-path:url(#SVGID_2_);fill:url(#SVGID_3_);}
	.st1{fill:#FFFFFF;}
</style>
<g>
	<g>
		<defs>
			<path id="SVGID_1_" d="M5.1,33.3c0,14.8,12,26.8,26.8,26.8c14.8,0,26.8-12,26.8-26.8c0-14.8-12-26.8-26.8-26.8
				C17.1,6.5,5.1,18.5,5.1,33.3"/>
		</defs>
		<clipPath id="SVGID_2_">
			<use xlink:href="#SVGID_1_"  style="overflow:visible;"/>
		</clipPath>
		
			<radialGradient id="SVGID_3_" cx="1535.0045" cy="321.2076" r="1" gradientTransform="matrix(26.751 0 0 -26.751 -41031.0273 8625.916)" gradientUnits="userSpaceOnUse">
			<stop  offset="0" style="stop-color:#F37A20"/>
			<stop  offset="1" style="stop-color:#F37A20"/>
			<stop  offset="1" style="stop-color:#B2D240"/>
		</radialGradient>
		<rect x="5.1" y="6.5" class="st0" width="53.5" height="53.5"/>
	</g>
	<path class="st1" d="M41.9,34.9h-7.3c-0.5,0-1,0.4-1,1V50c0,0.5-0.4,1-1,1h-1.5c-0.5,0-1-0.4-1-1V35.9c0-0.5-0.4-1-1-1h-7.3
		c-0.8,0-1.2-0.8-0.9-1.5l10-17.3c0.4-0.7,1.3-0.7,1.7,0l10,17.3C43.1,34.1,42.6,34.9,41.9,34.9"/>
</g>
</svg>
